<svg preserveAspectRatio="none" width="100%" height="100%" overflow="visible" style="display: block;" viewBox="0 0 49.6511 45.8318" fill="none" xmlns="http://www.w3.org/2000/svg">
<g id="Group 2">
<path id="Vector" d="M35.9971 0.0595703C43.6599 0.0595734 49.5918 6.02697 49.5918 13.7373C49.5917 18.4629 47.4901 22.7273 43.7861 27.2803C40.5444 31.265 36.0793 35.4653 30.7305 40.3857L28.3857 42.54L24.8252 45.751L21.2656 42.54C14.8719 36.6699 9.56909 31.8343 5.86426 27.2803C2.1603 22.7273 0.0596578 18.463 0.0595703 13.7373C0.0595703 6.02697 5.99143 0.0595703 13.6543 0.0595703C17.9804 0.0596436 22.0601 2.04928 24.7803 5.2832L24.8252 5.33789L24.8711 5.2832C27.5912 2.04929 31.6709 0.0595703 35.9971 0.0595703ZM35.9971 3.75977C32.8599 3.75977 29.7601 5.21986 27.7031 7.66504L24.8252 11.0859L21.9482 7.66504C19.8915 5.21981 16.7913 3.75984 13.6543 3.75977C10.9416 3.75977 8.43836 4.77326 6.60742 6.61523C4.77038 8.46333 3.75977 10.9935 3.75977 13.7373C3.75985 17.2216 5.25684 20.6272 8.59766 24.7754C12.0367 29.0454 17.2376 33.82 23.2539 39.3428L23.7568 39.8047L24.7852 40.7324L24.8252 40.7686L24.8652 40.7324L25.8936 39.8047H25.8945L26.3975 39.3418C32.4136 33.8191 37.6148 29.0454 41.0537 24.7754C44.3943 20.6273 45.8915 17.2216 45.8916 13.7373C45.8916 10.9934 44.8808 8.46344 43.0439 6.61523C41.2129 4.77336 38.7099 3.75977 35.9971 3.75977Z" fill="var(--fill-0, #EFF0F4)" stroke="var(--stroke-0, #EFF0F4)" stroke-width="0.119354"/>
<path id="Vector 1" d="M5.84834 23.9901H14.7999L18.2014 14.0837L25.0643 31.8674L30.4352 20.0514L33.1803 23.9901H43.6835" stroke="var(--stroke-0, #EFF0F4)" stroke-width="3.58061"/>
</g>
</svg>
